<?xml version="1.0" encoding="utf-8"?>
<!-- Generator: Adobe Illustrator 24.1.0, SVG Export Plug-In . SVG Version: 6.00 Build 0)  -->
<svg version="1.1" id="Capa_1" xmlns="http://www.w3.org/2000/svg" xmlns:xlink="http://www.w3.org/1999/xlink" x="0px" y="0px"
	 viewBox="0 0 1733.97 639.36" style="enable-background:new 0 0 1733.97 639.36;" xml:space="preserve">
<style type="text/css">
	.st0{fill:#FFFFFF;}
	.st1{fill-rule:evenodd;clip-rule:evenodd;fill:#FDCB07;}
	.st2{fill-rule:evenodd;clip-rule:evenodd;fill:#FFFFFF;}
</style>
<path class="st0" d="M0,230.22c0,53.42,8.46,90.44,36.41,135.93c10.81,17.6,48.26,58.63,63.58,62.72c0-32.01,0-64.02,0-96.04
	c0-33.62,1.49-62.95,1.3-96.05c-0.29-50.27,26.01-98.96,74.81-118.59c24.68-9.93,49.78-11.63,84.41-11.63
	c17.53,0,30.81-1.33,47.36-1.32l144.73,0c41.24,0.05,52.63-5.18,52.63-44.73c0-12.06-0.4-36.38-2.92-45.75
	c-4.09-15.22-17.29-13.45-36.55-13.45L342.05,1.35c-8.73,0.04-13.04-1.22-21.74-1.35h-2.57l-98.04,1.3
	C173.24,1.03,126.6,19.98,91.16,46.42c-5.42,4.04-8.57,7.16-13.72,11.27C67.42,65.68,59.9,75.93,52.96,83.21
	c-10.28,10.78-22.73,31.23-29.72,45.27C8.66,157.75,0,197.48,0,230.22z"/>
<path class="st1" d="M422.34,309.16v42.1c0,26.94-38.22,17.1-69.73,17.1c-36.24,0-68.41,1.32-103.94,1.32
	c-43.86,0-65.79-4.76-65.79,39.47c0,8.38,0.07,14.92,0.96,21.41c0.99,7.19-0.42,14.44,1.06,21.31
	c2.79,12.95,10.29,20.69,24.33,21.71c27.14,1.98,62.68,0.03,90.75,0.03c31.18,0,58.06,1.32,89.47,1.32c30.7,0,61.4,0,92.1,0
	c13.36,0,22.37-9,22.37-22.36V211.81c0-19.12-8.68-19.78-27.63-19.74c-15.79,0.04-31.58,0-47.37,0c-17.14,0-29.54-1.32-46.05-1.32
	l-141.9,2.82c-20.05,2.25-34.86-1.89-48.38,16.09c-3.74,4.97-7.8,17.14-8.32,24.57c-0.82,11.62-1.88,18.45-0.43,29.24
	c1.76,13.07-1.4,18.65,7.23,25.66c8.04,6.52,15.48,3.27,25.08,1.98L407.61,291C415.88,292.37,422.34,298.94,422.34,309.16z"/>
<path class="st1" d="M107.89,572.27c0,23.57,13.59,39.97,27.42,50.2c15.94,11.8,34.69,16.89,62.05,16.89h298.67
	c18.65,0,22.37-11.64,22.37-31.57v-47.36c0-10.34-7.25-17.4-14.82-20.7c-7.96-3.46-22.64-2.93-33.88-3l-238.13,0.02
	c-11.08,0-14.36,1.78-24.05,0.35l-52.26,0.96c-14.27,0-26.4-4.21-35.82,3.65C113.57,546.6,107.89,561.66,107.89,572.27z"/>
<path class="st0" d="M768.5,255.98c22.03,0,45.73-7.72,59.25-16.66c8.42-5.56,14.83-9.77,21.74-16.75
	c3.24-3.27,17.37-17,17.37-21.12v-66.29h-128.3v38.49h86.6v12.83c0,5.14-16.68,15.6-21.81,17.75
	c-64.97,27.16-121.81-30.24-97.81-89.26c1.56-3.83,3.37-6.57,5.67-10.37c2.61-4.31,4.4-5.84,7.71-9.4
	c18.78-20.2,50.03-26.26,73.75-17.34c14.01,5.27,30.99,19.79,38.92,31.64l16.3-14.71c5.33-5.4,11.63-9.02,15.78-15.23
	c-36.19-54.04-111.14-66.08-161.61-29.04c-33.47,24.56-54.7,72.97-43.26,118.44c1.94,7.7,4.24,14.36,7.09,20.71
	c4.55,10.15,9.17,17.31,16.26,25.43C704.22,240.41,734.18,255.98,768.5,255.98z"/>
<path class="st0" d="M1111.71,104.16v-13.9h-41.7v165.72h42.77v-100.5c0-7.58,1.42-12.96,4.86-17.59
	c10.34-13.93,34.37-9.19,34.76,10.05l-0.06,92.01c-0.01,20.13-7.8,16.04,42.77,16.04c0-21.78-2.56-98.1,3.61-114
	c6.99-18.03,38.09-17.46,38.09,10.29v103.71h39.56c2.46,0,3.21-0.74,3.21-3.21v-96.23c0-34.19-15.77-67.36-50.25-67.36
	c-17.9,0-29.03,3.98-40.27,17.47c-2.88,3.45-0.05,2.69-4.64,3.92c-2.59-9.68-20.56-21.38-34.21-21.38
	C1134.12,89.19,1123.08,91.08,1111.71,104.16z"/>
<polygon class="st0" points="672.28,547.86 810.2,547.86 810.2,502.96 716.11,502.96 716.11,468.75 794.16,468.75 794.16,424.91 
	716.11,424.91 716.11,366.11 810.2,366.11 810.2,321.2 672.28,321.2 "/>
<path class="st0" d="M867.94,465.54c0-21.95,16.83-40.63,42.77-40.63c29.6,0,55.02,38.17,28.08,68.7
	C916.66,518.68,867.94,504.52,867.94,465.54L867.94,465.54z M825.17,464.47c0,20.18,7.38,43.76,20.05,58
	c25.57,28.73,63.63,36.1,94.37,12.59c3.67-2.81,5.97-6.15,9.6-8.58v66.29h42.76V382.14h-42.76v21.38c-3.25-2.18-6.06-5.41-9.91-8.26
	c-3.74-2.77-6.75-4.87-11.1-7.08c-29.15-14.84-63.62-4.18-81.79,18.39c-7.23,8.98-9.89,13.69-14.8,24.76
	C828.65,437.97,825.17,454.86,825.17,464.47z"/>
<path class="st0" d="M1306.3,466.61c0-17.31,9.14-30.4,22.51-37.36c39.43-20.53,81.33,30.82,47.82,64.93
	C1350.38,520.88,1306.3,499.87,1306.3,466.61L1306.3,466.61z M1307.37,403.53v-21.38h-39.56c-2.46,0-3.21,0.74-3.21,3.21v207.42
	h42.77v-66.29c3.6,2.41,5.45,5.39,8.85,8.25c20.81,17.56,49.28,18.16,73.49,5.66c24.35-12.57,41.68-43.35,41.68-74.86
	c0-60.09-59.78-109.57-114.42-70.58C1313.17,397.67,1311.14,401,1307.37,403.53z"/>
<path class="st0" d="M922.46,175.79c0-17.21,6.93-32.89,23.18-39.9c3.69-1.59,11.9-3.84,16.38-3.83c4.09,0,12.26,2.04,15.76,3.38
	c5.29,2.03,8.15,3.84,11.79,7.45c4.34,4.31,5.51,4.86,8.46,10.78c15.35,30.81-8.32,61.16-35.92,60.41
	C941.56,213.52,922.46,196.88,922.46,175.79L922.46,175.79z M879.7,170.45c0,26.32,6.7,43.41,20.15,60.04
	c8.92,11.03,29.77,25.49,49.35,25.49c17.52,0,32.31-2.93,45.67-14.2c3.4-2.87,5.25-5.84,8.85-8.25v22.45h42.77V89.19
	c-47.37,0-43.01-3.2-42.81,9.59c0.07,4.29,0.04,8.58,0.04,12.87c-4.71-3.16-8.21-9.26-19.23-14.99
	c-29.36-15.26-64.05-6.75-84.33,18.35C887.26,130.96,879.7,148.08,879.7,170.45z"/>
<path class="st0" d="M1337.3,173.66c0-15.28,7.25-27.77,17.14-34.18c6.4-4.15,15.55-7.81,23.34-7.38
	c38.29,2.11,52.55,45.41,28.76,69.11C1378.47,229.16,1337.3,207.52,1337.3,173.66L1337.3,173.66z M1294.53,171.52
	c0,33.53,14.24,59.92,40,75.48c22.96,13.88,55.05,11.72,75.16-5.23l6.58-6.25c1.35-1.31,0.75-0.95,2.29-1.98
	c0,10.31-2.03,22.45,3.21,22.45h39.56V89.19c-47.37,0-43.02-3.2-42.81,9.59c0.07,4.29,0.04,8.58,0.04,12.87
	c-11.34-7.6-16.48-22.45-53.46-22.45c-10.17,0-22.56,4.38-29.09,8.33c-4.7,2.84-7.15,4.57-11.29,7.95
	c-2.27,1.86-3.33,2.25-5.35,4.27c-2.18,2.18-2.23,3-4.28,5.34C1303.78,128,1294.53,147.7,1294.53,171.52z"/>
<path class="st0" d="M1489.13,465.54c0-22.27,16.95-40.63,42.77-40.63c20.83,0,38.49,19.56,38.49,40.63
	c0,21.24-16.83,40.63-41.7,40.63C1507.31,506.17,1489.13,486.96,1489.13,465.54L1489.13,465.54z M1446.36,461.26
	c0,27.08,6.49,45.38,24.85,63.89c31.75,32.02,85.86,31.28,117.65-0.51c3.08-3.08,6.69-7.59,9.13-11.18
	c47.78-70.11-24.76-158.36-101.69-125.22C1468.33,400.29,1446.36,430.04,1446.36,461.26z"/>
<path class="st0" d="M1012.27,475.16c0,28.03,13.06,52.53,37.4,65.24c23.21,12.12,58.83,10.85,77.83-9.89
	c2.71-2.96,6.05-8.43,8.8-10.45v27.8h39.56c2.46,0,3.21-0.74,3.21-3.21V382.14h-42.77v73.77c0,24.31-12.7,54.53-36.35,54.53
	c-15.04,0-26.81-0.05-36.58-14.73c-6.67-10.02-8.36-17.12-8.32-33.38l0-62.01c0-9.51,1.89-18.18-3.21-18.18h-39.56V475.16z"/>
<path class="st1" d="M1599.25,238.87c-20.78,0-39.03-13.2-48.15-30.97c-16.71-32.55,4.53-78.08,53.49-78.08h49.18v50.25
	C1653.78,213.29,1629.59,238.87,1599.25,238.87L1599.25,238.87z M1558.62,87.05c0,7.35,5.47,21.66,14.97,22.45
	c-2.79,3.81-2.81,1.21-12.48,5.69c-4.74,2.2-8.35,4.4-12.12,7.13c-7.31,5.3-13.29,11.02-18.79,18.63
	c-10.48,14.52-17,35.78-12.52,58.67c3.98,20.35,12.66,34.88,27.28,47.56c52.07,45.18,137.68,12.65,137.68-66.05v-51.32h25.66v-20.31
	h-104.78c-25.94,0-23.7-35.28-2.14-35.28c5.04,0,10.81,2.83,13.46,5.79c3.43,3.83,4.72,7.74,4.72,14.52h21.38
	c1.05-12.58,4.71-23.97-11.11-35.93c-18.27-13.81-54.61-9.8-66.75,12.6C1561.36,74.39,1558.62,82.61,1558.62,87.05z"/>
<path class="st0" d="M1629.19,431.33c0,50.3,50.94,47.58,62.71,57.04c8,6.43,4.35,24.22-8.18,24.22c-7.37,0-11.76-7.14-11.76-14.97
	h-42.77c0,56.78,76.17,69.81,99.46,22.48c2.73-5.55,4.58-11.88,5.32-18.42v-12.69c-1.95-16.59-11.85-32.29-33.37-38.19
	c-8.12-2.22-21.71-5.9-26.34-11.08c-3.33-3.72-3.47-8.62-1.85-14.3c4.09-14.36,22.69-11.28,23.07,5.92h38.49
	c-0.21-9.35-2.73-22.34-7.66-29.76c-1.33-2-3.87-5.61-5.46-7.37c-16.44-18.06-55.68-19.99-76.99,0.47
	C1635.67,402.52,1629.19,415.7,1629.19,431.33z"/>
<rect x="1202.59" y="382.14" class="st0" width="41.7" height="165.72"/>
<path class="st2" d="M1198.31,336.17c0,9.67,0.16,13.56,7.7,21.16c17.9,18.06,42.55-0.8,42.55-13.68c0-9.55,1.02-16.3-8.53-24.61
	c-4.14-3.6-9.98-6.15-17.01-5.99C1211,313.33,1198.31,323.27,1198.31,336.17z"/>
</svg>
