<?xml version="1.0" encoding="utf-8"?>
<!-- Generator: Adobe Illustrator 24.1.0, SVG Export Plug-In . SVG Version: 6.00 Build 0)  -->
<svg version="1.1" id="Layer_1" xmlns:xodm="http://www.corel.com/coreldraw/odm/2003"
	 xmlns="http://www.w3.org/2000/svg" xmlns:xlink="http://www.w3.org/1999/xlink" x="0px" y="0px" viewBox="0 0 714 353.2"
	 style="enable-background:new 0 0 714 353.2;" xml:space="preserve">
<style type="text/css">
	.st0{fill:#FEC237;}
	.st1{fill:#FBAC3A;}
	.st2{fill:none;}
	.st3{clip-path:url(#SVGID_4_);}
	.st4{fill:none;stroke:#000000;stroke-width:0.216;stroke-miterlimit:10;}
	.st5{fill-rule:evenodd;clip-rule:evenodd;fill:#FEC237;stroke:#FEC237;stroke-width:0.5669;stroke-miterlimit:10;}
	.st6{clip-path:url(#SVGID_8_);}
</style>
<g id="_105553268996800">
	<path d="M714,284.8h-59.4l-13.7-37.3H564l-14.7,37.3h-58.8l82.3-213.9h60.7l8.2,21.8l-7.4,8.1c-3.8,3.6-1.7,2-1.7,4.5
		c0,1.7-1,2-2.7,4c-17.3,20.7-14.2,17.8-29.6,18.7l-5.9,10.5c-12.2,0.7-24.9-2.9-30.8,6.7c-8.7,14.2,6.6,49.1,14,62.7
		c4.6,8.4-2,6.9,7.6,18.2c11.8,0.6,1.4-7.5,4.1-11.5l6.2,11.7l5-0.2c2.7-3.8-0.4-7.4-1.4-11.2c5.2,0,5,8.9,8.8,11
		c2.9,1.6,5.7,0.4,5.6-3.2c-0.1-2.1-1.9-5.3-2.6-7.9c3.6,1.8,3.4,6.2,7.9,11.5c5,0.2,6.9-0.3,4.9-6.2c-5.5-16.3-22.8-44.8-15-66.9
		c0.7,14.4,2.5,21.4,7.1,33.6c2.1,5.6,9.8,23.8,12.9,26.6c14.4-27.4,1.6-8.4,10.2-30.9c2-5.2,3.8-10,5.7-14.9
		c5.6-14.4,3.9-8.4,1.6-13.7c4.2-2.7,9.5-7.8,14-12L714,284.8L714,284.8z M645.4,102.5l1,2.6l-21.7,25.1l-3.5-3.3
		c1.8-3.7,7.6-9,10.6-12.7c8-9.9,4.6-0.7,9.7-7.1C642.3,106.2,643.6,104.6,645.4,102.5L645.4,102.5z"/>
	<path class="st0" d="M186.9,348.9c-5.7,5.7-15,5.7-20.7,0l-162-162c-5.7-5.7-5.7-15,0-20.7l162-162c5.7-5.7,15-5.7,20.7,0l48,48
		c-18.5,4.3-35.6,12.5-51.2,25.2c-31.5,25.6-47.2,58.9-47.2,100.1c0,41,15.7,74.3,47.2,99.8c15.2,12.3,31.6,20.8,49.3,25.5
		L186.9,348.9L186.9,348.9z"/>
	<path class="st1" d="M173.7,0.3c-2.7,0.5-5.3,1.9-7.4,4l-162,162c-5.7,5.7-5.7,15,0,20.7l162,162c2.1,2.1,4.7,3.4,7.4,4v-84.5
		c-24.8-24.2-37.2-54.5-37.2-90.9c0-36.5,12.4-66.9,37.2-91.1V0.3L173.7,0.3z"/>
	<polygon points="475.4,284.8 353.7,284.8 353.7,70.9 475.4,70.9 475.4,117.4 409.3,117.4 409.3,153.6 471.8,153.6 471.8,200.1 
		409.3,200.1 409.3,238.2 475.4,238.2 	"/>
	<g>
		<defs>
			<polygon id="SVGID_1_" points="475.4,284.8 353.7,284.8 353.7,70.9 475.4,70.9 475.4,117.4 409.3,117.4 409.3,153.6 471.8,153.6 
				471.8,200.1 409.3,200.1 409.3,238.2 475.4,238.2 			"/>
		</defs>
		<clipPath id="SVGID_2_">
			<use xlink:href="#SVGID_1_"  style="overflow:visible;"/>
		</clipPath>
	</g>
	<polygon id="_1" class="st2" points="475.4,284.8 353.7,284.8 353.7,70.9 475.4,70.9 475.4,117.4 409.3,117.4 409.3,153.6 
		471.8,153.6 471.8,200.1 409.3,200.1 409.3,238.2 475.4,238.2 	"/>
	<g>
		<defs>
			<polygon id="SVGID_3_" points="475.4,284.8 353.7,284.8 353.7,70.9 475.4,70.9 475.4,117.4 409.3,117.4 409.3,153.6 471.8,153.6 
				471.8,200.1 409.3,200.1 409.3,238.2 475.4,238.2 			"/>
		</defs>
		<clipPath id="SVGID_4_">
			<use xlink:href="#SVGID_3_"  style="overflow:visible;"/>
		</clipPath>
		<g class="st3">
			<path id="_2" class="st4" d="M353.7,70.9l121.8,213.9 M475.4,70.9L353.7,284.8"/>
		</g>
	</g>
	<path class="st5" d="M268.9,136.2c10,0,19.1,3.6,26.1,9.6l0,0l33.1,28.1l-28.9,29.3l0-0.1c-7.4,8.5-18.3,13.8-30.4,13.8
		c-22.3,0-40.3-18.1-40.3-40.3C228.5,154.3,246.6,136.2,268.9,136.2L268.9,136.2z"/>
	<path d="M316.5,277.9c-18.2,7.2-35,10.8-50.5,10.8c-26.9,0-51.1-8.6-72.4-25.8c-27.2-22-40.8-50.8-40.8-86.2
		c0-35.5,13.6-64.3,40.8-86.4c21.3-17.2,45.6-25.8,72.9-25.8c14.9,0,31.5,3.6,50,10.8l0.6,61.8c-14.5-13.4-34.3-18.7-48.6-18.5
		c-14.4,0-27,4.3-37.6,13c-13.5,11-20.2,26-20.2,45.2c0,19,6.7,34,20.2,44.9c10.6,8.7,23.2,13.1,37.6,13.1c11.4,0,22-3,32-8.9
		c5.3-3.2,10.4-8.8,16-14.4L316.5,277.9L316.5,277.9z"/>
	<g>
		<defs>
			<path id="SVGID_5_" d="M316.5,277.9c-18.2,7.2-35,10.8-50.5,10.8c-26.9,0-51.1-8.6-72.4-25.8c-27.2-22-40.8-50.8-40.8-86.2
				c0-35.5,13.6-64.3,40.8-86.4c21.3-17.2,45.6-25.8,72.9-25.8c14.9,0,31.5,3.6,50,10.8l0.6,61.8c-14.5-13.4-34.3-18.7-48.6-18.5
				c-14.4,0-27,4.3-37.6,13c-13.5,11-20.2,26-20.2,45.2c0,19,6.7,34,20.2,44.9c10.6,8.7,23.2,13.1,37.6,13.1c11.4,0,22-3,32-8.9
				c5.3-3.2,10.4-8.8,16-14.4L316.5,277.9L316.5,277.9z"/>
		</defs>
		<clipPath id="SVGID_6_">
			<use xlink:href="#SVGID_5_"  style="overflow:visible;"/>
		</clipPath>
	</g>
	<path id="_1_0" class="st2" d="M316.5,277.9c-18.2,7.2-35,10.8-50.5,10.8c-26.9,0-51.1-8.6-72.4-25.8c-27.2-22-40.8-50.8-40.8-86.2
		c0-35.5,13.6-64.3,40.8-86.4c21.3-17.2,45.6-25.8,72.9-25.8c14.9,0,31.5,3.6,50,10.8l0.6,61.8c-14.5-13.4-34.3-18.7-48.6-18.5
		c-14.4,0-27,4.3-37.6,13c-13.5,11-20.2,26-20.2,45.2c0,19,6.7,34,20.2,44.9c10.6,8.7,23.2,13.1,37.6,13.1c11.4,0,22-3,32-8.9
		c5.3-3.2,10.4-8.8,16-14.4L316.5,277.9L316.5,277.9z"/>
	<g>
		<defs>
			<path id="SVGID_7_" d="M316.5,277.9c-18.2,7.2-35,10.8-50.5,10.8c-26.9,0-51.1-8.6-72.4-25.8c-27.2-22-40.8-50.8-40.8-86.2
				c0-35.5,13.6-64.3,40.8-86.4c21.3-17.2,45.6-25.8,72.9-25.8c14.9,0,31.5,3.6,50,10.8l0.6,61.8c-14.5-13.4-34.3-18.7-48.6-18.5
				c-14.4,0-27,4.3-37.6,13c-13.5,11-20.2,26-20.2,45.2c0,19,6.7,34,20.2,44.9c10.6,8.7,23.2,13.1,37.6,13.1c11.4,0,22-3,32-8.9
				c5.3-3.2,10.4-8.8,16-14.4L316.5,277.9L316.5,277.9z"/>
		</defs>
		<clipPath id="SVGID_8_">
			<use xlink:href="#SVGID_7_"  style="overflow:visible;"/>
		</clipPath>
		<g class="st6">
			<path id="_2_1" class="st4" d="M152.8,64.5L317,288.7 M317,64.5L152.8,288.7"/>
		</g>
	</g>
</g>
</svg>
